<svg width="512" height="512" viewBox="0 0 512 512" xmlns="http://www.w3.org/2000/svg">
  <defs>
    <linearGradient id="bg" x1="0%" y1="0%" x2="100%" y2="100%">
      <stop offset="0%" stop-color="#FFC857"/>
      <stop offset="100%" stop-color="#FF8C7A"/>
    </linearGradient>
    <filter id="shadow" x="-20%" y="-20%" width="140%" height="140%">
      <feDropShadow dx="0" dy="8" stdDeviation="12" flood-color="#00000020"/>
    </filter>
  </defs>
  <!-- Background -->
  <rect width="512" height="512" rx="112" fill="url(#bg)"/>
  <!-- Cat ears -->
  <path d="M 180 180 L 150 100 L 230 160 Z" fill="#FFFFFF" opacity="0.95"/>
  <path d="M 332 180 L 362 100 L 282 160 Z" fill="#FFFFFF" opacity="0.95"/>
  <path d="M 190 170 L 170 120 L 215 155 Z" fill="#FFB5A0"/>
  <path d="M 322 170 L 342 120 L 297 155 Z" fill="#FFB5A0"/>
  <!-- Cat face -->
  <circle cx="256" cy="270" r="120" fill="#FFFFFF" filter="url(#shadow)"/>
  <!-- Eyes -->
  <ellipse cx="210" cy="250" rx="16" ry="22" fill="#3D3D3D"/>
  <ellipse cx="302" cy="250" rx="16" ry="22" fill="#3D3D3D"/>
  <circle cx="214" cy="244" r="6" fill="#FFFFFF"/>
  <circle cx="306" cy="244" r="6" fill="#FFFFFF"/>
  <!-- Nose -->
  <path d="M 248 280 Q 256 275 264 280 Q 260 290 256 290 Q 252 290 248 280 Z" fill="#FF8C7A"/>
  <!-- Mouth -->
  <path d="M 256 290 Q 246 305 236 298" stroke="#3D3D3D" stroke-width="4" fill="none" stroke-linecap="round"/>
  <path d="M 256 290 Q 266 305 276 298" stroke="#3D3D3D" stroke-width="4" fill="none" stroke-linecap="round"/>
  <!-- Cheeks -->
  <circle cx="180" cy="290" r="14" fill="#FFC857" opacity="0.5"/>
  <circle cx="332" cy="290" r="14" fill="#FFC857" opacity="0.5"/>
  <!-- Whiskers -->
  <line x1="160" y1="275" x2="130" y2="270" stroke="#3D3D3D" stroke-width="3" stroke-linecap="round" opacity="0.3"/>
  <line x1="160" y1="285" x2="130" y2="290" stroke="#3D3D3D" stroke-width="3" stroke-linecap="round" opacity="0.3"/>
  <line x1="352" y1="275" x2="382" y2="270" stroke="#3D3D3D" stroke-width="3" stroke-linecap="round" opacity="0.3"/>
  <line x1="352" y1="285" x2="382" y2="290" stroke="#3D3D3D" stroke-width="3" stroke-linecap="round" opacity="0.3"/>
</svg>
